<svg class="_1RJ-18WI _1N6KkJ12 _2wtUzNoJ _1VAxlkaD" focusable="false" tabindex="" xmlns="http://www.w3.org/2000/svg" viewBox="0 0 430 46" aria-labelledby="58bcd54f-4dd8-4c3a-ac18-4c2873ade71e" data-reactid="9"><title id="58bcd54f-4dd8-4c3a-ac18-4c2873ade71e" data-reactid="10">Envato Elements</title><path class="_1YcTqlox" fill="#81b441" d="M27.6 8.6c-1.1-.6-4.2-.2-7.9.9-6.5 4.4-12 11-12.4 21.5-.1.3-.7 0-.8-.1-1.8-3.4-2.5-6.9-1-12 .3-.5-.6-1-.8-.9-.3.3-1.7 1.8-2.6 3.3C-2.3 29 .6 38.8 8.3 43.1s17.5 1.5 21.8-6.2c5-9 .4-26.7-2.5-28.3z" data-reactid="11"></path><path class="_21lLttvN" fill="#ffffff" d="M55.2 12.8c-9.2 0-15.8 6.8-15.8 16.2 0 9.5 6.6 16.1 16.1 16.1 4.8 0 8.6-1.5 11.6-4.6.9-1 1-1.9 1-2.3 0-1.5-1.1-2.6-2.7-2.6-.8 0-1.5.3-2.2 1-1.7 1.6-4 3.2-7.7 3.2-5.2 0-9.4-3.9-9.7-8.9h20.7c2.2 0 3.3-1.1 3.3-3.2 0-.6 0-1.1-.1-2-1-8.1-6.5-12.9-14.5-12.9zm0 5.1c5 0 8.2 3.2 8.3 8.3H45.8c.6-4.8 4.5-8.3 9.4-8.3zM89.7 12.8c-4.2 0-8.3 2.4-9.9 5.7v-2.1c0-3.2-2.5-3.3-3-3.3-1.5 0-3 .9-3 3.3v24.8c0 3.3 2.6 3.5 3.1 3.5s3.2-.2 3.2-3.5V27.9c0-5.8 3.3-9.8 8-9.8 4.5 0 6.8 3 6.8 9.1v14c0 3.3 2.6 3.5 3.2 3.5s3.1-.2 3.1-3.5v-16c-.1-5.9-3.1-12.4-11.5-12.4zM129.6 13.2c-1.5 0-2.5.8-3.1 2.5l-8.6 21.7-8.6-21.7c-.7-1.7-1.7-2.5-3.2-2.5-1.7 0-3.2 1.4-3.2 3 0 .4 0 .9.4 1.8l9.9 23.4c1.2 2.8 3.1 3.4 4.5 3.4s3.4-.6 4.5-3.4l10-23.5c.3-.8.4-1.4.4-1.7.1-1.8-1.2-3-3-3zM147.9 12.8c-4 0-7.8 1.1-10.6 3.2-.9.7-1.4 1.5-1.4 2.5 0 1.4 1.1 2.5 2.4 2.5.6 0 1.3-.2 1.9-.7 2.4-1.6 4.6-2.3 7.1-2.3 4.7 0 7.3 2.4 7.3 6.5v.7c-10.5 0-21.1 1.3-21.1 10.4 0 6.5 5.6 9.5 11.1 9.5 4.4 0 7.9-1.7 10.2-5.1v1.6c0 2.4 1.6 3.2 3 3.2.3 0 2.8-.1 2.8-3.2V24.9c.1-7.6-4.6-12.1-12.7-12.1zm5.5 17h1.3v1.5c0 5.3-3.4 8.7-8.6 8.7-1.4 0-6.1-.3-6.1-4.6 0-5 7.6-5.6 13.4-5.6zM177.1 18.9c2.8 0 2.9-2.1 2.9-2.6 0-1.3-.8-2.6-2.9-2.6h-5.7V7.9c0-2.6-1.7-3.5-3.1-3.5-.5 0-3.1.2-3.1 3.5v27.2c0 6.3 3.1 9.6 9 9.6 1.5 0 3-.3 4-.7 1.1-.6 1.7-1.5 1.7-2.5 0-1.5-1.1-2.5-2.5-2.5-.3 0-.7.1-1.1.2-.5.1-.9.2-1.3.2-2.4 0-3.5-1.6-3.5-4.9V18.9h5.6zM198 12.8c-9.5 0-16.4 6.8-16.4 16.1 0 4.5 1.7 8.7 4.7 11.6 3 2.9 7.2 4.6 11.7 4.6 9.4 0 16.5-7 16.5-16.2 0-9.3-7-16.1-16.5-16.1zm0 26.9c-6.5 0-10-5.5-10-10.8 0-7.4 5.2-10.8 10-10.8s10 3.4 10 10.8c-.1 7.4-5.2 10.8-10 10.8z" data-reactid="12"></path><path class="_2tyvpM0P" fill="#81b441" d="M235.6 46c-2.7 0-5.1-.7-7.3-2.2-2.2-1.4-4-3.4-5.2-5.9-1.2-2.4-1.9-5.2-1.9-8.2v-1.3c0-3 .6-5.7 1.8-8.2s2.9-4.5 5-5.9 4.5-2.1 7-2.1c3.7 0 6.8 1.3 9.1 4 2.3 2.6 3.5 6.1 3.5 10.3v1.6c0 .5-.4.9-.9.9h-22.1v.7c0 2.3.5 4.5 1.5 6.5s2.3 3.5 4 4.6 3.5 1.7 5.5 1.7c1.9 0 3.6-.3 4.9-.9 1.3-.6 2.5-1.6 3.5-2.9.3-.4.9-.5 1.3-.2l1.1.8c.4.3.5.9.2 1.3-2.5 3.6-6.2 5.4-11 5.4zm-10.7-20.4h19.4c-.1-1.7-.5-3.3-1.2-4.8-.8-1.6-1.9-2.9-3.3-3.8-1.4-.9-2.9-1.3-4.7-1.3-2.7 0-5 1-6.9 3-1.8 1.8-2.9 4.2-3.3 6.9zM253.2 45.4h-1.5c-.5 0-.9-.4-.9-.9V.9c0-.5.4-.9.9-.9h1.5c.5 0 .9.4.9.9v43.7c0 .4-.4.8-.9.8zM271.7 46c-2.7 0-5.1-.7-7.3-2.2-2.2-1.4-4-3.4-5.2-5.9-1.2-2.4-1.9-5.2-1.9-8.2v-1.3c0-3 .6-5.7 1.8-8.2 1.2-2.5 2.9-4.5 5-5.9s4.5-2.1 7-2.1c3.7 0 6.8 1.3 9.1 4 2.3 2.6 3.5 6.1 3.5 10.3v1.6c0 .5-.4.9-.9.9h-22.1v.7c0 2.3.5 4.5 1.5 6.5s2.3 3.5 4 4.6c1.7 1.1 3.5 1.7 5.5 1.7 1.9 0 3.5-.3 4.9-.9 1.3-.6 2.5-1.6 3.5-2.9.3-.4.9-.5 1.3-.2l1.1.8c.4.3.5.9.2 1.3-2.5 3.6-6.2 5.4-11 5.4zm-10.8-20.4h19.4c-.1-1.7-.5-3.3-1.2-4.8-.8-1.6-1.9-2.9-3.3-3.8-1.4-.9-3-1.3-4.7-1.3-2.7 0-5 1-6.9 3-1.7 1.8-2.8 4.2-3.3 6.9zM330.2 45.4h-1.5c-.5 0-.9-.4-.9-.9V24.6c0-3.1-.6-5.4-1.8-6.9-1.2-1.4-3-2.1-5.6-2-3.5.1-6.1 1.4-8.1 4.1-1.1 1.5-1.8 3-1.9 4.4v20.4c0 .5-.4.9-.9.9H308c-.5 0-.9-.4-.9-.9V23.9c0-2.8-.6-4.9-1.8-6.3-1.1-1.3-3.1-1.9-5.7-1.9-3.1 0-5.5 1.3-7.5 4.1-1.2 1.6-2 3.5-2.4 5.4v19.3c0 .5-.4.9-.9.9h-1.6c-.5 0-.9-.4-.9-.9V13.7c0-.5.4-.9.9-.9h1.6c.5 0 .9.4.9.9v3.7c.8-1.2 1.8-2.1 3-2.9 2.1-1.5 4.4-2.2 7-2.2 2.8 0 5.1.6 6.9 1.9 1.3.9 2.3 2.2 2.9 3.9.9-1.4 2.2-2.6 3.7-3.6 2.2-1.4 4.7-2.1 7.4-2.1 3.6 0 6.3 1.1 8.1 3.1 1.8 2 2.7 5.1 2.7 9.1v20.1c-.2.3-.7.7-1.2.7zM348 46c-2.7 0-5.1-.7-7.3-2.2-2.2-1.4-4-3.4-5.2-5.9-1.2-2.4-1.9-5.2-1.9-8.2v-1.3c0-3 .6-5.7 1.8-8.2 1.2-2.5 2.9-4.5 5-5.9 2.1-1.4 4.5-2.1 7-2.1 3.7 0 6.8 1.3 9.1 4 2.3 2.6 3.5 6.1 3.5 10.3v1.6c0 .5-.4.9-.9.9H337v.7c0 2.3.5 4.5 1.5 6.5s2.3 3.5 4 4.6c1.7 1.1 3.5 1.7 5.5 1.7 1.9 0 3.6-.3 4.9-.9 1.3-.6 2.5-1.6 3.5-2.9.3-.4.9-.5 1.3-.2l1.1.8c.4.3.5.9.2 1.3-2.5 3.6-6.2 5.4-11 5.4zm-10.8-20.4h19.4c-.1-1.7-.5-3.3-1.2-4.8-.8-1.6-1.9-2.9-3.3-3.8-1.4-.9-3-1.3-4.7-1.3-2.7 0-5 1-6.9 3-1.7 1.8-2.8 4.2-3.3 6.9zM385.9 45.4h-1.5c-.5 0-.9-.4-.9-.9V24.4c0-3-.6-5.3-1.8-6.7-1.1-1.3-3-2-5.6-2-2.4 0-4.5.8-6.2 2.6-1.8 1.7-3 4-3.6 6.7v19.6c0 .5-.4.9-.9.9h-1.5c-.5 0-.9-.4-.9-.9V13.8c0-.5.4-.9.9-.9h1.5c.5 0 .9.4.9.9v3.6c.8-1.1 1.8-2.1 2.9-2.9 2.1-1.5 4.5-2.2 7-2.2 3.6 0 6.3 1.1 8.1 3.1 1.7 2 2.6 5.1 2.7 9.1v20.1c-.2.4-.6.8-1.1.8zM401 46c-2.5 0-4.4-.7-5.5-2.2-1.1-1.4-1.7-3.5-1.7-6.4V16.3h-4.7c-.5 0-.9-.4-.9-.9v-1.5c0-.5.4-.9.9-.9h4.7V5.6c0-.5.4-.9.9-.9h1.6c.5 0 .9.4.9.9V13h6c.5 0 .9.4.9.9v1.5c0 .5-.4.9-.9.9h-6v20.9c0 2 .3 3.4.9 4.3.8 1.2 2.6 1.3 5.7.9.5-.1 1 .3 1.1.8l.3 1.4c.1.5-.2.9-.6 1.1-.8.2-1.9.3-3.6.3zM418.4 46c-3.6 0-6.6-.9-8.9-2.5-2.4-1.7-3.6-4-3.6-6.8 0-.5.4-.9.9-.9h1.5c.5 0 .9.4.9.9.1 1.9.9 3.3 2.4 4.3 1.6 1.1 3.8 1.6 6.6 1.6 2.5 0 4.6-.6 6.1-1.7s2.2-2.4 2.2-3.9c0-3.3-2.9-5.4-8.8-6.7-4-.9-6.8-1.9-8.4-3.3-1.7-1.5-2.6-3.5-2.6-6 0-2.6 1.1-4.7 3.2-6.3s4.8-2.4 8-2.4c3.5 0 6.4.9 8.6 2.6 2.2 1.8 3.4 4.2 3.4 7.1 0 .5-.4.9-.9.9h-1.6c-.5 0-.9-.4-.9-.9 0-1.8-.7-3.2-2.3-4.4-1.6-1.2-3.7-1.9-6.2-1.9s-4.4.5-5.8 1.6c-1.3 1-2 2.2-2 3.7 0 1.2.2 2.1.7 2.7.5.7 1.3 1.3 2.5 1.8 1.3.6 3.1 1.2 5.6 1.8 2.6.6 4.7 1.3 6.3 2.2 1.6.9 2.8 1.9 3.6 3.2.8 1.2 1.1 2.7 1.1 4.5 0 2.7-1.1 5-3.4 6.6-2 1.4-4.8 2.2-8.2 2.2z" data-reactid="13"></path></svg>