<?xml version="1.0" encoding="UTF-8"?>
<svg width="178px" height="200px" viewBox="0 0 178 200" version="1.1" xmlns="http://www.w3.org/2000/svg" xmlns:xlink="http://www.w3.org/1999/xlink">
    <!-- Generator: Sketch 42 (36781) - http://www.bohemiancoding.com/sketch -->
    <title>Group 2 Copy</title>
    <desc>Created with Sketch.</desc>
    <defs></defs>
    <g id="Page-1" stroke="none" stroke-width="1" fill="none" fill-rule="evenodd">
        <g id="Group-3" fill="#FFFFFF">
            <g id="Group-2-Copy">
                <path d="M78.6163861,3.36537216 C84.3510977,0.0467019725 93.6441573,0.0439560553 99.3836139,3.36537216 L167.616386,42.8515893 C173.351098,46.1702595 178,54.2357088 178,60.8532671 L178,139.876249 C178,146.499631 173.355843,154.556511 167.616386,157.877927 L99.3836139,197.364144 C93.6489023,200.682814 84.3558427,200.68556 78.6163861,197.364144 L10.3836139,157.877927 C4.64890228,154.559257 3.90798505e-14,146.493807 3.37507799e-14,139.876249 L-1.0658141e-14,60.8532671 C-1.42108547e-14,54.2298851 4.6441573,46.1730054 10.3836139,42.8515893 L78.6163861,3.36537216 Z M86.5253207,148.433633 L86.5253207,148.433633 L86.3121609,148.940201 L75.1657074,121.887511 L75.1623829,121.89547 L52.6601489,67.2687772 L30.2480927,67.2687772 L63.866177,148.940201 L86.3142034,148.940201 L86.5253207,148.433633 Z M92.6851885,133.653257 L92.6851885,133.653257 L126.367332,52.8341932 L103.997118,52.8609935 L82.2881232,104.835429 L92.6851885,133.653257 Z M107.089428,132.791505 L107.089428,132.791505 C108.020557,137.412647 109.930501,140.948195 112.819281,143.398203 C117.082087,147.013539 123.135314,148.82118 131.028787,148.82118 C138.92226,148.82118 146.226504,147.743657 146.226504,147.743657 L143.07818,132.809006 C143.07818,132.809006 138.562833,133.402634 134.981086,133.133963 C131.399339,132.865291 129.036404,131.880176 127.831698,130.814115 C126.626992,129.748055 125.511283,127.358868 125.511283,124.855943 L125.511283,88.5889419 L107.089428,132.791505 Z M132.394474,72.0729787 L125.743311,88.0321996 L143.07818,88.0321996 L143.07818,72.0729787 L132.394474,72.0729787 Z" id="Combined-Shape-Copy"></path>
            </g>
        </g>
    </g>
</svg>